<svg id="Layer_1" data-name="Layer 1" xmlns="http://www.w3.org/2000/svg" width="1in" height="1in" viewBox="0 0 72 72"><defs><style>.cls-1{fill:#009245;}.cls-2{fill:#006837;}.cls-3{fill:#333;}</style></defs><title>shs_logo</title><path class="cls-1" d="M34,42.7084l.0711-9.3214A3.9871,3.9871,0,0,1,36,25.9033V13.6614c-2.6442,4.898-8.8846,8.3524-16.1976,8.3524-.0533,0-.1046-.0057-.1577-.0062a37.3523,37.3523,0,0,0-.6659,7.0476c0,14.06,7.6206,25.4571,17.0212,25.4571v-9.95A1.8645,1.8645,0,0,1,34,42.7084Z"/><path class="cls-2" d="M52.3553,22.0076c-.0531,0-.1044.0062-.1577.0062-7.313,0-13.5534-3.4544-16.1976-8.3524V25.9033a3.988,3.988,0,0,1,2,7.4451v9.3622a1.8645,1.8645,0,0,1-2,1.8539v9.9478c9.4006,0,17.0212-11.3976,17.0212-25.4571A37.3523,37.3523,0,0,0,52.3553,22.0076Z"/><path class="cls-3" d="M31.19,53.4763A25.2782,25.2782,0,0,1,27.1,63.6a28.7054,28.7054,0,0,1-5.89-2.66A28.97,28.97,0,0,1,7.75,42.56c1.04-.44,2.18-.85,3.4-1.23.59-.2,1.21-.38,1.84-.56a48.3864,48.3864,0,0,0,8.8922,2.5117,32.4791,32.4791,0,0,1-2.3112-7.5665A43.2881,43.2881,0,0,1,12.57,33.42,22.9136,22.9136,0,0,1,7.53,30.5,28.9925,28.9925,0,0,1,36,7V0a36,36,0,1,0,0,72V54.5143A11.8786,11.8786,0,0,1,31.19,53.4763Z"/><path d="M37.996,42.7885A1.846,1.846,0,0,1,36,44.5623v.0042A1.845,1.845,0,0,0,37.996,42.7885Z"/><path d="M36,0V7A28.9925,28.9925,0,0,1,64.47,30.5a22.9136,22.9136,0,0,1-5.04,2.92,43.2881,43.2881,0,0,1-7.001,2.2952,32.4791,32.4791,0,0,1-2.3112,7.5665A48.3864,48.3864,0,0,0,59.01,40.77c.63.18,1.25.36,1.84.56,1.22.38,2.36.79,3.4,1.23A29.0432,29.0432,0,0,1,44.9,63.6a25.2782,25.2782,0,0,1-4.09-10.1237A11.8786,11.8786,0,0,1,36,54.5143V72A36,36,0,0,0,36,0Z"/></svg>